<svg width="25" height="25" viewBox="0 0 25 25" fill="none" xmlns="http://www.w3.org/2000/svg">
<path fill-rule="evenodd" clip-rule="evenodd" d="M19 11.5C19 15.6421 15.6421 19 11.5 19C7.35786 19 4 15.6421 4 11.5C4 7.35786 7.35786 4 11.5 4C15.6421 4 19 7.35786 19 11.5ZM17.2275 17.7806C15.7166 19.1593 13.7065 20 11.5 20C6.80558 20 3 16.1944 3 11.5C3 6.80558 6.80558 3 11.5 3C16.1944 3 20 6.80558 20 11.5C20 13.6282 19.2179 15.5736 17.9254 17.0647L22.4588 21.716C22.6515 21.9137 22.6537 22.2365 22.4637 22.437C22.2737 22.6375 21.9634 22.6398 21.7707 22.4421L17.2275 17.7806Z" fill="#666666"/>
</svg>
